<mxfile host="app.diagrams.net" agent="Mozilla/5.0 (Windows NT 10.0; Win64; x64) AppleWebKit/537.36 (KHTML, like Gecko) Chrome/132.0.0.0 Safari/537.36" version="26.0.13">
  <diagram name="Page-1" id="9f46799a-70d6-7492-0946-bef42562c5a5">
    <mxGraphModel dx="2206" dy="1998" grid="1" gridSize="10" guides="1" tooltips="1" connect="1" arrows="1" fold="1" page="1" pageScale="1" pageWidth="1100" pageHeight="850" background="none" math="0" shadow="0">
      <root>
        <mxCell id="0" />
        <mxCell id="1" parent="0" />
        <mxCell id="UV1UsnCk2qy5vx6y43Ti-13" style="edgeStyle=orthogonalEdgeStyle;rounded=0;orthogonalLoop=1;jettySize=auto;html=1;exitX=0.5;exitY=0;exitDx=0;exitDy=0;entryX=0.5;entryY=1;entryDx=0;entryDy=0;" edge="1" parent="1" source="78961159f06e98e8-17" target="UV1UsnCk2qy5vx6y43Ti-4">
          <mxGeometry relative="1" as="geometry" />
        </mxCell>
        <mxCell id="78961159f06e98e8-17" value="&amp;lt;&amp;lt;aggregate&amp;gt;&amp;gt;&lt;div&gt;Event&lt;/div&gt;" style="swimlane;html=1;fontStyle=1;align=center;verticalAlign=top;childLayout=stackLayout;horizontal=1;startSize=37;horizontalStack=0;resizeParent=1;resizeLast=0;collapsible=1;marginBottom=0;swimlaneFillColor=#ffffff;rounded=0;shadow=0;comic=0;labelBackgroundColor=none;strokeWidth=1;fillColor=#d5e8d4;fontFamily=Verdana;fontSize=12;strokeColor=#82b366;" parent="1" vertex="1">
          <mxGeometry x="50" y="287" width="470" height="508" as="geometry" />
        </mxCell>
        <mxCell id="78961159f06e98e8-21" value="+ id: EventId" style="text;html=1;strokeColor=#82b366;fillColor=#d5e8d4;align=left;verticalAlign=top;spacingLeft=4;spacingRight=4;whiteSpace=wrap;overflow=hidden;rotatable=0;points=[[0,0.5],[1,0.5]];portConstraint=eastwest;" parent="78961159f06e98e8-17" vertex="1">
          <mxGeometry y="37" width="470" height="26" as="geometry" />
        </mxCell>
        <mxCell id="78961159f06e98e8-23" value="- title: EventTitle" style="text;html=1;strokeColor=#82b366;fillColor=#d5e8d4;align=left;verticalAlign=top;spacingLeft=4;spacingRight=4;whiteSpace=wrap;overflow=hidden;rotatable=0;points=[[0,0.5],[1,0.5]];portConstraint=eastwest;" parent="78961159f06e98e8-17" vertex="1">
          <mxGeometry y="63" width="470" height="26" as="geometry" />
        </mxCell>
        <mxCell id="78961159f06e98e8-25" value="- description: EventDescription" style="text;html=1;strokeColor=#82b366;fillColor=#d5e8d4;align=left;verticalAlign=top;spacingLeft=4;spacingRight=4;whiteSpace=wrap;overflow=hidden;rotatable=0;points=[[0,0.5],[1,0.5]];portConstraint=eastwest;" parent="78961159f06e98e8-17" vertex="1">
          <mxGeometry y="89" width="470" height="26" as="geometry" />
        </mxCell>
        <mxCell id="78961159f06e98e8-26" value="- startDate: DateTime" style="text;html=1;strokeColor=#82b366;fillColor=#d5e8d4;align=left;verticalAlign=top;spacingLeft=4;spacingRight=4;whiteSpace=wrap;overflow=hidden;rotatable=0;points=[[0,0.5],[1,0.5]];portConstraint=eastwest;" parent="78961159f06e98e8-17" vertex="1">
          <mxGeometry y="115" width="470" height="26" as="geometry" />
        </mxCell>
        <mxCell id="78961159f06e98e8-24" value="- endDate: DateTime" style="text;html=1;strokeColor=#82b366;fillColor=#d5e8d4;align=left;verticalAlign=top;spacingLeft=4;spacingRight=4;whiteSpace=wrap;overflow=hidden;rotatable=0;points=[[0,0.5],[1,0.5]];portConstraint=eastwest;" parent="78961159f06e98e8-17" vertex="1">
          <mxGeometry y="141" width="470" height="26" as="geometry" />
        </mxCell>
        <mxCell id="UV1UsnCk2qy5vx6y43Ti-17" value="- visibility: EventVisibility" style="text;html=1;strokeColor=#82b366;fillColor=#d5e8d4;align=left;verticalAlign=top;spacingLeft=4;spacingRight=4;whiteSpace=wrap;overflow=hidden;rotatable=0;points=[[0,0.5],[1,0.5]];portConstraint=eastwest;" vertex="1" parent="78961159f06e98e8-17">
          <mxGeometry y="167" width="470" height="26" as="geometry" />
        </mxCell>
        <mxCell id="UV1UsnCk2qy5vx6y43Ti-18" value="- status: EventStatus" style="text;html=1;strokeColor=#82b366;fillColor=#d5e8d4;align=left;verticalAlign=top;spacingLeft=4;spacingRight=4;whiteSpace=wrap;overflow=hidden;rotatable=0;points=[[0,0.5],[1,0.5]];portConstraint=eastwest;" vertex="1" parent="78961159f06e98e8-17">
          <mxGeometry y="193" width="470" height="29" as="geometry" />
        </mxCell>
        <mxCell id="78961159f06e98e8-27" value="- maxGuests: EventMaxGuests" style="text;html=1;strokeColor=#82b366;fillColor=#d5e8d4;align=left;verticalAlign=top;spacingLeft=4;spacingRight=4;whiteSpace=wrap;overflow=hidden;rotatable=0;points=[[0,0.5],[1,0.5]];portConstraint=eastwest;" parent="78961159f06e98e8-17" vertex="1">
          <mxGeometry y="222" width="470" height="26" as="geometry" />
        </mxCell>
        <mxCell id="UV1UsnCk2qy5vx6y43Ti-20" value="- guestList: IList&amp;lt;GuestList&amp;gt;" style="text;html=1;strokeColor=#82b366;fillColor=#d5e8d4;align=left;verticalAlign=top;spacingLeft=4;spacingRight=4;whiteSpace=wrap;overflow=hidden;rotatable=0;points=[[0,0.5],[1,0.5]];portConstraint=eastwest;" vertex="1" parent="78961159f06e98e8-17">
          <mxGeometry y="248" width="470" height="26" as="geometry" />
        </mxCell>
        <mxCell id="78961159f06e98e8-19" value="" style="line;html=1;strokeWidth=1;fillColor=none;align=left;verticalAlign=middle;spacingTop=-1;spacingLeft=3;spacingRight=3;rotatable=0;labelPosition=right;points=[];portConstraint=eastwest;" parent="78961159f06e98e8-17" vertex="1">
          <mxGeometry y="274" width="470" height="10" as="geometry" />
        </mxCell>
        <mxCell id="UV1UsnCk2qy5vx6y43Ti-49" value="+ UpdateTitle(eventTitle : EventTitle) : void" style="text;html=1;strokeColor=#82b366;fillColor=#d5e8d4;align=left;verticalAlign=top;spacingLeft=4;spacingRight=4;whiteSpace=wrap;overflow=hidden;rotatable=0;points=[[0,0.5],[1,0.5]];portConstraint=eastwest;" vertex="1" parent="78961159f06e98e8-17">
          <mxGeometry y="284" width="470" height="32" as="geometry" />
        </mxCell>
        <mxCell id="UV1UsnCk2qy5vx6y43Ti-53" value="+ UpdateDescription(eventDescription : EventDescription) : void" style="text;html=1;strokeColor=#82b366;fillColor=#d5e8d4;align=left;verticalAlign=top;spacingLeft=4;spacingRight=4;whiteSpace=wrap;overflow=hidden;rotatable=0;points=[[0,0.5],[1,0.5]];portConstraint=eastwest;" vertex="1" parent="78961159f06e98e8-17">
          <mxGeometry y="316" width="470" height="32" as="geometry" />
        </mxCell>
        <mxCell id="UV1UsnCk2qy5vx6y43Ti-54" value="+ UpdateStartDate(eventStartDate : DateTime, eventEndDate : DateTime) : void" style="text;html=1;strokeColor=#82b366;fillColor=#d5e8d4;align=left;verticalAlign=top;spacingLeft=4;spacingRight=4;whiteSpace=wrap;overflow=hidden;rotatable=0;points=[[0,0.5],[1,0.5]];portConstraint=eastwest;" vertex="1" parent="78961159f06e98e8-17">
          <mxGeometry y="348" width="470" height="32" as="geometry" />
        </mxCell>
        <mxCell id="UV1UsnCk2qy5vx6y43Ti-55" value="+ UpdateEndDate(eventEndDate : DateTime, eventStartDate : DateTime) : void" style="text;html=1;strokeColor=#82b366;fillColor=#d5e8d4;align=left;verticalAlign=top;spacingLeft=4;spacingRight=4;whiteSpace=wrap;overflow=hidden;rotatable=0;points=[[0,0.5],[1,0.5]];portConstraint=eastwest;" vertex="1" parent="78961159f06e98e8-17">
          <mxGeometry y="380" width="470" height="32" as="geometry" />
        </mxCell>
        <mxCell id="UV1UsnCk2qy5vx6y43Ti-56" value="+ UpdateVisibility(eventVisibility : EventVisibility) : void" style="text;html=1;strokeColor=#82b366;fillColor=#d5e8d4;align=left;verticalAlign=top;spacingLeft=4;spacingRight=4;whiteSpace=wrap;overflow=hidden;rotatable=0;points=[[0,0.5],[1,0.5]];portConstraint=eastwest;" vertex="1" parent="78961159f06e98e8-17">
          <mxGeometry y="412" width="470" height="32" as="geometry" />
        </mxCell>
        <mxCell id="UV1UsnCk2qy5vx6y43Ti-57" value="+ UpdateStatus(eventStatus : EventStatus) : void" style="text;html=1;strokeColor=#82b366;fillColor=#d5e8d4;align=left;verticalAlign=top;spacingLeft=4;spacingRight=4;whiteSpace=wrap;overflow=hidden;rotatable=0;points=[[0,0.5],[1,0.5]];portConstraint=eastwest;" vertex="1" parent="78961159f06e98e8-17">
          <mxGeometry y="444" width="470" height="32" as="geometry" />
        </mxCell>
        <mxCell id="UV1UsnCk2qy5vx6y43Ti-58" value="+ UpdateMaxGuests(eventMaxGuests : EventMaxGuests) : void" style="text;html=1;strokeColor=#82b366;fillColor=#d5e8d4;align=left;verticalAlign=top;spacingLeft=4;spacingRight=4;whiteSpace=wrap;overflow=hidden;rotatable=0;points=[[0,0.5],[1,0.5]];portConstraint=eastwest;" vertex="1" parent="78961159f06e98e8-17">
          <mxGeometry y="476" width="470" height="32" as="geometry" />
        </mxCell>
        <mxCell id="78961159f06e98e8-30" value="&amp;lt;&amp;lt;aggregate&amp;gt;&amp;gt;&lt;div&gt;GuestList&lt;/div&gt;" style="swimlane;html=1;fontStyle=1;align=center;verticalAlign=top;childLayout=stackLayout;horizontal=1;startSize=40;horizontalStack=0;resizeParent=1;resizeLast=0;collapsible=1;marginBottom=0;swimlaneFillColor=#ffffff;rounded=0;shadow=0;comic=0;labelBackgroundColor=none;strokeWidth=1;fillColor=#d5e8d4;fontFamily=Verdana;fontSize=12;strokeColor=#82b366;" parent="1" vertex="1">
          <mxGeometry x="730" y="508" width="220" height="118" as="geometry" />
        </mxCell>
        <mxCell id="78961159f06e98e8-31" value="+ id: GuestListId" style="text;html=1;strokeColor=#82b366;fillColor=#d5e8d4;align=left;verticalAlign=top;spacingLeft=4;spacingRight=4;whiteSpace=wrap;overflow=hidden;rotatable=0;points=[[0,0.5],[1,0.5]];portConstraint=eastwest;" parent="78961159f06e98e8-30" vertex="1">
          <mxGeometry y="40" width="220" height="26" as="geometry" />
        </mxCell>
        <mxCell id="78961159f06e98e8-32" value="- numberOfGuests: int" style="text;html=1;strokeColor=#82b366;fillColor=#d5e8d4;align=left;verticalAlign=top;spacingLeft=4;spacingRight=4;whiteSpace=wrap;overflow=hidden;rotatable=0;points=[[0,0.5],[1,0.5]];portConstraint=eastwest;" parent="78961159f06e98e8-30" vertex="1">
          <mxGeometry y="66" width="220" height="26" as="geometry" />
        </mxCell>
        <mxCell id="78961159f06e98e8-37" value="- guests: IList&amp;lt;Guest&amp;gt;" style="text;html=1;strokeColor=#82b366;fillColor=#d5e8d4;align=left;verticalAlign=top;spacingLeft=4;spacingRight=4;whiteSpace=wrap;overflow=hidden;rotatable=0;points=[[0,0.5],[1,0.5]];portConstraint=eastwest;" parent="78961159f06e98e8-30" vertex="1">
          <mxGeometry y="92" width="220" height="26" as="geometry" />
        </mxCell>
        <mxCell id="UV1UsnCk2qy5vx6y43Ti-4" value="&amp;lt;&amp;lt;value&amp;gt;&amp;gt;&lt;div&gt;EventId&lt;/div&gt;" style="swimlane;html=1;fontStyle=1;align=center;verticalAlign=top;childLayout=stackLayout;horizontal=1;startSize=37;horizontalStack=0;resizeParent=1;resizeLast=0;collapsible=1;marginBottom=0;swimlaneFillColor=#ffffff;rounded=0;shadow=0;comic=0;labelBackgroundColor=none;strokeWidth=1;fontFamily=Verdana;fontSize=12;fillColor=#fff2cc;strokeColor=#d6b656;" vertex="1" parent="1">
          <mxGeometry x="205" y="150" width="160" height="63" as="geometry" />
        </mxCell>
        <mxCell id="UV1UsnCk2qy5vx6y43Ti-5" value="+ Value: Guid" style="text;html=1;strokeColor=#d6b656;fillColor=#fff2cc;align=left;verticalAlign=top;spacingLeft=4;spacingRight=4;whiteSpace=wrap;overflow=hidden;rotatable=0;points=[[0,0.5],[1,0.5]];portConstraint=eastwest;" vertex="1" parent="UV1UsnCk2qy5vx6y43Ti-4">
          <mxGeometry y="37" width="160" height="26" as="geometry" />
        </mxCell>
        <mxCell id="UV1UsnCk2qy5vx6y43Ti-15" value="1" style="text;html=1;align=center;verticalAlign=middle;resizable=0;points=[];autosize=1;strokeColor=none;fillColor=none;" vertex="1" parent="1">
          <mxGeometry x="250" y="213" width="30" height="30" as="geometry" />
        </mxCell>
        <mxCell id="UV1UsnCk2qy5vx6y43Ti-33" value="&amp;lt;&amp;lt;entity&amp;gt;&amp;gt;&lt;div&gt;Guest&lt;/div&gt;" style="swimlane;html=1;fontStyle=1;align=center;verticalAlign=top;childLayout=stackLayout;horizontal=1;startSize=37;horizontalStack=0;resizeParent=1;resizeLast=0;collapsible=1;marginBottom=0;swimlaneFillColor=#ffffff;rounded=0;shadow=0;comic=0;labelBackgroundColor=none;strokeWidth=1;fillColor=#dae8fc;fontFamily=Verdana;fontSize=12;strokeColor=#6c8ebf;" vertex="1" parent="1">
          <mxGeometry x="700" y="700" width="280" height="130" as="geometry" />
        </mxCell>
        <mxCell id="UV1UsnCk2qy5vx6y43Ti-34" value="+ id: GuestId" style="text;html=1;strokeColor=#6c8ebf;fillColor=#dae8fc;align=left;verticalAlign=top;spacingLeft=4;spacingRight=4;whiteSpace=wrap;overflow=hidden;rotatable=0;points=[[0,0.5],[1,0.5]];portConstraint=eastwest;" vertex="1" parent="UV1UsnCk2qy5vx6y43Ti-33">
          <mxGeometry y="37" width="280" height="26" as="geometry" />
        </mxCell>
        <mxCell id="UV1UsnCk2qy5vx6y43Ti-35" value="- email: ViaEmail" style="text;html=1;strokeColor=#6c8ebf;fillColor=#dae8fc;align=left;verticalAlign=top;spacingLeft=4;spacingRight=4;whiteSpace=wrap;overflow=hidden;rotatable=0;points=[[0,0.5],[1,0.5]];portConstraint=eastwest;" vertex="1" parent="UV1UsnCk2qy5vx6y43Ti-33">
          <mxGeometry y="63" width="280" height="26" as="geometry" />
        </mxCell>
        <mxCell id="UV1UsnCk2qy5vx6y43Ti-36" value="- name: GuestName" style="text;html=1;strokeColor=#6c8ebf;fillColor=#dae8fc;align=left;verticalAlign=top;spacingLeft=4;spacingRight=4;whiteSpace=wrap;overflow=hidden;rotatable=0;points=[[0,0.5],[1,0.5]];portConstraint=eastwest;" vertex="1" parent="UV1UsnCk2qy5vx6y43Ti-33">
          <mxGeometry y="89" width="280" height="26" as="geometry" />
        </mxCell>
        <mxCell id="UV1UsnCk2qy5vx6y43Ti-43" value="" style="line;html=1;strokeWidth=1;fillColor=none;align=left;verticalAlign=middle;spacingTop=-1;spacingLeft=3;spacingRight=3;rotatable=0;labelPosition=right;points=[];portConstraint=eastwest;" vertex="1" parent="UV1UsnCk2qy5vx6y43Ti-33">
          <mxGeometry y="115" width="280" height="10" as="geometry" />
        </mxCell>
        <mxCell id="UV1UsnCk2qy5vx6y43Ti-45" value="&amp;lt;&amp;lt;value&amp;gt;&amp;gt;&lt;div&gt;GuestId&lt;/div&gt;" style="swimlane;html=1;fontStyle=1;align=center;verticalAlign=top;childLayout=stackLayout;horizontal=1;startSize=37;horizontalStack=0;resizeParent=1;resizeLast=0;collapsible=1;marginBottom=0;swimlaneFillColor=#ffffff;rounded=0;shadow=0;comic=0;labelBackgroundColor=none;strokeWidth=1;fontFamily=Verdana;fontSize=12;fillColor=#fff2cc;strokeColor=#d6b656;" vertex="1" parent="1">
          <mxGeometry x="1050" y="770.5" width="160" height="63" as="geometry" />
        </mxCell>
        <mxCell id="UV1UsnCk2qy5vx6y43Ti-46" value="+ Value: Guid" style="text;html=1;strokeColor=#d6b656;fillColor=#fff2cc;align=left;verticalAlign=top;spacingLeft=4;spacingRight=4;whiteSpace=wrap;overflow=hidden;rotatable=0;points=[[0,0.5],[1,0.5]];portConstraint=eastwest;" vertex="1" parent="UV1UsnCk2qy5vx6y43Ti-45">
          <mxGeometry y="37" width="160" height="26" as="geometry" />
        </mxCell>
        <mxCell id="UV1UsnCk2qy5vx6y43Ti-47" style="edgeStyle=orthogonalEdgeStyle;rounded=0;orthogonalLoop=1;jettySize=auto;html=1;entryX=0;entryY=0.5;entryDx=0;entryDy=0;" edge="1" parent="1" source="UV1UsnCk2qy5vx6y43Ti-36" target="UV1UsnCk2qy5vx6y43Ti-45">
          <mxGeometry relative="1" as="geometry" />
        </mxCell>
        <mxCell id="UV1UsnCk2qy5vx6y43Ti-48" value="1" style="text;html=1;align=center;verticalAlign=middle;resizable=0;points=[];autosize=1;strokeColor=none;fillColor=none;" vertex="1" parent="1">
          <mxGeometry x="1020" y="770.5" width="30" height="30" as="geometry" />
        </mxCell>
        <mxCell id="UV1UsnCk2qy5vx6y43Ti-59" value="&amp;lt;&amp;lt;enum&amp;gt;&amp;gt;&lt;div&gt;Status&lt;/div&gt;" style="swimlane;html=1;fontStyle=1;align=center;verticalAlign=top;childLayout=stackLayout;horizontal=1;startSize=37;horizontalStack=0;resizeParent=1;resizeLast=0;collapsible=1;marginBottom=0;swimlaneFillColor=#ffffff;rounded=0;shadow=0;comic=0;labelBackgroundColor=none;strokeWidth=1;fontFamily=Verdana;fontSize=12;fillColor=#e1d5e7;strokeColor=#9673a6;" vertex="1" parent="1">
          <mxGeometry x="20" y="890" width="160" height="141" as="geometry" />
        </mxCell>
        <mxCell id="UV1UsnCk2qy5vx6y43Ti-60" value="+ Draft" style="text;html=1;strokeColor=#9673a6;fillColor=#e1d5e7;align=left;verticalAlign=top;spacingLeft=4;spacingRight=4;whiteSpace=wrap;overflow=hidden;rotatable=0;points=[[0,0.5],[1,0.5]];portConstraint=eastwest;" vertex="1" parent="UV1UsnCk2qy5vx6y43Ti-59">
          <mxGeometry y="37" width="160" height="26" as="geometry" />
        </mxCell>
        <mxCell id="UV1UsnCk2qy5vx6y43Ti-63" value="+ Ready" style="text;html=1;strokeColor=#9673a6;fillColor=#e1d5e7;align=left;verticalAlign=top;spacingLeft=4;spacingRight=4;whiteSpace=wrap;overflow=hidden;rotatable=0;points=[[0,0.5],[1,0.5]];portConstraint=eastwest;" vertex="1" parent="UV1UsnCk2qy5vx6y43Ti-59">
          <mxGeometry y="63" width="160" height="26" as="geometry" />
        </mxCell>
        <mxCell id="UV1UsnCk2qy5vx6y43Ti-64" value="+ Active" style="text;html=1;strokeColor=#9673a6;fillColor=#e1d5e7;align=left;verticalAlign=top;spacingLeft=4;spacingRight=4;whiteSpace=wrap;overflow=hidden;rotatable=0;points=[[0,0.5],[1,0.5]];portConstraint=eastwest;" vertex="1" parent="UV1UsnCk2qy5vx6y43Ti-59">
          <mxGeometry y="89" width="160" height="26" as="geometry" />
        </mxCell>
        <mxCell id="UV1UsnCk2qy5vx6y43Ti-65" value="+ Cancelled" style="text;html=1;strokeColor=#9673a6;fillColor=#e1d5e7;align=left;verticalAlign=top;spacingLeft=4;spacingRight=4;whiteSpace=wrap;overflow=hidden;rotatable=0;points=[[0,0.5],[1,0.5]];portConstraint=eastwest;" vertex="1" parent="UV1UsnCk2qy5vx6y43Ti-59">
          <mxGeometry y="115" width="160" height="26" as="geometry" />
        </mxCell>
        <mxCell id="UV1UsnCk2qy5vx6y43Ti-61" value="&amp;lt;&amp;lt;enum&amp;gt;&amp;gt;&lt;div&gt;Visibility&lt;/div&gt;" style="swimlane;html=1;fontStyle=1;align=center;verticalAlign=top;childLayout=stackLayout;horizontal=1;startSize=37;horizontalStack=0;resizeParent=1;resizeLast=0;collapsible=1;marginBottom=0;swimlaneFillColor=#ffffff;rounded=0;shadow=0;comic=0;labelBackgroundColor=none;strokeWidth=1;fontFamily=Verdana;fontSize=12;fillColor=#e1d5e7;strokeColor=#9673a6;" vertex="1" parent="1">
          <mxGeometry x="250" y="890" width="160" height="90" as="geometry" />
        </mxCell>
        <mxCell id="UV1UsnCk2qy5vx6y43Ti-62" value="+ Public" style="text;html=1;strokeColor=#9673a6;fillColor=#e1d5e7;align=left;verticalAlign=top;spacingLeft=4;spacingRight=4;whiteSpace=wrap;overflow=hidden;rotatable=0;points=[[0,0.5],[1,0.5]];portConstraint=eastwest;" vertex="1" parent="UV1UsnCk2qy5vx6y43Ti-61">
          <mxGeometry y="37" width="160" height="26" as="geometry" />
        </mxCell>
        <mxCell id="UV1UsnCk2qy5vx6y43Ti-66" value="+ Private" style="text;html=1;strokeColor=#9673a6;fillColor=#e1d5e7;align=left;verticalAlign=top;spacingLeft=4;spacingRight=4;whiteSpace=wrap;overflow=hidden;rotatable=0;points=[[0,0.5],[1,0.5]];portConstraint=eastwest;" vertex="1" parent="UV1UsnCk2qy5vx6y43Ti-61">
          <mxGeometry y="63" width="160" height="26" as="geometry" />
        </mxCell>
        <mxCell id="UV1UsnCk2qy5vx6y43Ti-67" value="" style="endArrow=classic;html=1;rounded=0;entryX=0.5;entryY=0;entryDx=0;entryDy=0;" edge="1" parent="1" target="UV1UsnCk2qy5vx6y43Ti-59">
          <mxGeometry width="50" height="50" relative="1" as="geometry">
            <mxPoint x="270" y="795" as="sourcePoint" />
            <mxPoint x="220" y="855" as="targetPoint" />
          </mxGeometry>
        </mxCell>
        <mxCell id="UV1UsnCk2qy5vx6y43Ti-69" value="" style="endArrow=classic;html=1;rounded=0;entryX=0.5;entryY=0;entryDx=0;entryDy=0;" edge="1" parent="1" target="UV1UsnCk2qy5vx6y43Ti-61">
          <mxGeometry width="50" height="50" relative="1" as="geometry">
            <mxPoint x="270" y="795" as="sourcePoint" />
            <mxPoint x="250" y="955" as="targetPoint" />
          </mxGeometry>
        </mxCell>
        <mxCell id="UV1UsnCk2qy5vx6y43Ti-70" value="1" style="text;html=1;align=center;verticalAlign=middle;resizable=0;points=[];autosize=1;strokeColor=none;fillColor=none;" vertex="1" parent="1">
          <mxGeometry x="330" y="860" width="30" height="30" as="geometry" />
        </mxCell>
        <mxCell id="UV1UsnCk2qy5vx6y43Ti-71" value="1" style="text;html=1;align=center;verticalAlign=middle;resizable=0;points=[];autosize=1;strokeColor=none;fillColor=none;" vertex="1" parent="1">
          <mxGeometry x="75" y="860" width="30" height="30" as="geometry" />
        </mxCell>
        <mxCell id="UV1UsnCk2qy5vx6y43Ti-73" style="edgeStyle=orthogonalEdgeStyle;rounded=0;orthogonalLoop=1;jettySize=auto;html=1;entryX=0;entryY=0.5;entryDx=0;entryDy=0;dashed=1;endArrow=blockThin;endFill=0;" edge="1" parent="1" source="UV1UsnCk2qy5vx6y43Ti-49" target="78961159f06e98e8-32">
          <mxGeometry relative="1" as="geometry" />
        </mxCell>
        <mxCell id="UV1UsnCk2qy5vx6y43Ti-76" value="attended by" style="text;html=1;align=center;verticalAlign=middle;resizable=0;points=[];autosize=1;strokeColor=none;fillColor=none;" vertex="1" parent="1">
          <mxGeometry x="580" y="552" width="90" height="30" as="geometry" />
        </mxCell>
        <mxCell id="UV1UsnCk2qy5vx6y43Ti-77" value="" style="endArrow=classic;html=1;rounded=0;entryX=0.5;entryY=0;entryDx=0;entryDy=0;" edge="1" parent="1" target="UV1UsnCk2qy5vx6y43Ti-33">
          <mxGeometry width="50" height="50" relative="1" as="geometry">
            <mxPoint x="840" y="626" as="sourcePoint" />
            <mxPoint x="850" y="756" as="targetPoint" />
          </mxGeometry>
        </mxCell>
        <mxCell id="UV1UsnCk2qy5vx6y43Ti-78" value="&amp;lt;&amp;lt;aggregate&amp;gt;&amp;gt;&lt;div&gt;Location&lt;/div&gt;" style="swimlane;html=1;fontStyle=1;align=center;verticalAlign=top;childLayout=stackLayout;horizontal=1;startSize=40;horizontalStack=0;resizeParent=1;resizeLast=0;collapsible=1;marginBottom=0;swimlaneFillColor=#ffffff;rounded=0;shadow=0;comic=0;labelBackgroundColor=none;strokeWidth=1;fillColor=#d5e8d4;fontFamily=Verdana;fontSize=12;strokeColor=#82b366;" vertex="1" parent="1">
          <mxGeometry x="730" y="70" width="220" height="196" as="geometry" />
        </mxCell>
        <mxCell id="UV1UsnCk2qy5vx6y43Ti-79" value="+ id: LocationId" style="text;html=1;strokeColor=#82b366;fillColor=#d5e8d4;align=left;verticalAlign=top;spacingLeft=4;spacingRight=4;whiteSpace=wrap;overflow=hidden;rotatable=0;points=[[0,0.5],[1,0.5]];portConstraint=eastwest;" vertex="1" parent="UV1UsnCk2qy5vx6y43Ti-78">
          <mxGeometry y="40" width="220" height="26" as="geometry" />
        </mxCell>
        <mxCell id="UV1UsnCk2qy5vx6y43Ti-80" value="- name: LocationName" style="text;html=1;strokeColor=#82b366;fillColor=#d5e8d4;align=left;verticalAlign=top;spacingLeft=4;spacingRight=4;whiteSpace=wrap;overflow=hidden;rotatable=0;points=[[0,0.5],[1,0.5]];portConstraint=eastwest;" vertex="1" parent="UV1UsnCk2qy5vx6y43Ti-78">
          <mxGeometry y="66" width="220" height="26" as="geometry" />
        </mxCell>
        <mxCell id="UV1UsnCk2qy5vx6y43Ti-81" value="- availableStart: DateTime" style="text;html=1;strokeColor=#82b366;fillColor=#d5e8d4;align=left;verticalAlign=top;spacingLeft=4;spacingRight=4;whiteSpace=wrap;overflow=hidden;rotatable=0;points=[[0,0.5],[1,0.5]];portConstraint=eastwest;" vertex="1" parent="UV1UsnCk2qy5vx6y43Ti-78">
          <mxGeometry y="92" width="220" height="26" as="geometry" />
        </mxCell>
        <mxCell id="UV1UsnCk2qy5vx6y43Ti-82" value="- availableEnd: DateTime" style="text;html=1;strokeColor=#82b366;fillColor=#d5e8d4;align=left;verticalAlign=top;spacingLeft=4;spacingRight=4;whiteSpace=wrap;overflow=hidden;rotatable=0;points=[[0,0.5],[1,0.5]];portConstraint=eastwest;" vertex="1" parent="UV1UsnCk2qy5vx6y43Ti-78">
          <mxGeometry y="118" width="220" height="26" as="geometry" />
        </mxCell>
        <mxCell id="UV1UsnCk2qy5vx6y43Ti-83" value="- hostsEvent: EventId" style="text;html=1;strokeColor=#82b366;fillColor=#d5e8d4;align=left;verticalAlign=top;spacingLeft=4;spacingRight=4;whiteSpace=wrap;overflow=hidden;rotatable=0;points=[[0,0.5],[1,0.5]];portConstraint=eastwest;" vertex="1" parent="UV1UsnCk2qy5vx6y43Ti-78">
          <mxGeometry y="144" width="220" height="26" as="geometry" />
        </mxCell>
        <mxCell id="UV1UsnCk2qy5vx6y43Ti-84" value="- capacity: int" style="text;html=1;strokeColor=#82b366;fillColor=#d5e8d4;align=left;verticalAlign=top;spacingLeft=4;spacingRight=4;whiteSpace=wrap;overflow=hidden;rotatable=0;points=[[0,0.5],[1,0.5]];portConstraint=eastwest;" vertex="1" parent="UV1UsnCk2qy5vx6y43Ti-78">
          <mxGeometry y="170" width="220" height="26" as="geometry" />
        </mxCell>
        <mxCell id="UV1UsnCk2qy5vx6y43Ti-86" value="" style="endArrow=open;html=1;rounded=0;entryX=1;entryY=0.5;entryDx=0;entryDy=0;dashed=1;endFill=0;" edge="1" parent="1" target="78961159f06e98e8-23">
          <mxGeometry width="50" height="50" relative="1" as="geometry">
            <mxPoint x="730" y="190.5" as="sourcePoint" />
            <mxPoint x="659.9999999999998" y="265.5000000000002" as="targetPoint" />
          </mxGeometry>
        </mxCell>
        <mxCell id="UV1UsnCk2qy5vx6y43Ti-88" value="hosts" style="text;html=1;align=center;verticalAlign=middle;resizable=0;points=[];autosize=1;strokeColor=none;fillColor=none;rotation=-40;" vertex="1" parent="1">
          <mxGeometry x="585" y="248" width="50" height="30" as="geometry" />
        </mxCell>
        <mxCell id="UV1UsnCk2qy5vx6y43Ti-89" style="edgeStyle=orthogonalEdgeStyle;rounded=0;orthogonalLoop=1;jettySize=auto;html=1;exitX=0.5;exitY=0;exitDx=0;exitDy=0;entryX=0.5;entryY=1;entryDx=0;entryDy=0;" edge="1" parent="1" target="UV1UsnCk2qy5vx6y43Ti-90">
          <mxGeometry relative="1" as="geometry">
            <mxPoint x="840" y="70" as="sourcePoint" />
          </mxGeometry>
        </mxCell>
        <mxCell id="UV1UsnCk2qy5vx6y43Ti-90" value="&amp;lt;&amp;lt;value&amp;gt;&amp;gt;&lt;div&gt;LocationId&lt;/div&gt;" style="swimlane;html=1;fontStyle=1;align=center;verticalAlign=top;childLayout=stackLayout;horizontal=1;startSize=37;horizontalStack=0;resizeParent=1;resizeLast=0;collapsible=1;marginBottom=0;swimlaneFillColor=#ffffff;rounded=0;shadow=0;comic=0;labelBackgroundColor=none;strokeWidth=1;fontFamily=Verdana;fontSize=12;fillColor=#fff2cc;strokeColor=#d6b656;" vertex="1" parent="1">
          <mxGeometry x="760" y="-67" width="160" height="63" as="geometry" />
        </mxCell>
        <mxCell id="UV1UsnCk2qy5vx6y43Ti-91" value="+ Value: Guid" style="text;html=1;strokeColor=#d6b656;fillColor=#fff2cc;align=left;verticalAlign=top;spacingLeft=4;spacingRight=4;whiteSpace=wrap;overflow=hidden;rotatable=0;points=[[0,0.5],[1,0.5]];portConstraint=eastwest;" vertex="1" parent="UV1UsnCk2qy5vx6y43Ti-90">
          <mxGeometry y="37" width="160" height="26" as="geometry" />
        </mxCell>
        <mxCell id="UV1UsnCk2qy5vx6y43Ti-92" value="1" style="text;html=1;align=center;verticalAlign=middle;resizable=0;points=[];autosize=1;strokeColor=none;fillColor=none;" vertex="1" parent="1">
          <mxGeometry x="805" y="-4" width="30" height="30" as="geometry" />
        </mxCell>
        <mxCell id="UV1UsnCk2qy5vx6y43Ti-94" value="" style="endArrow=classic;html=1;rounded=0;entryX=1;entryY=0.5;entryDx=0;entryDy=0;exitX=0;exitY=0.5;exitDx=0;exitDy=0;" edge="1" parent="1" source="UV1UsnCk2qy5vx6y43Ti-80" target="UV1UsnCk2qy5vx6y43Ti-5">
          <mxGeometry width="50" height="50" relative="1" as="geometry">
            <mxPoint x="590" y="250" as="sourcePoint" />
            <mxPoint x="640" y="200" as="targetPoint" />
          </mxGeometry>
        </mxCell>
        <mxCell id="UV1UsnCk2qy5vx6y43Ti-95" value="1" style="text;html=1;align=center;verticalAlign=middle;resizable=0;points=[];autosize=1;strokeColor=none;fillColor=none;" vertex="1" parent="1">
          <mxGeometry x="365" y="166.5" width="30" height="30" as="geometry" />
        </mxCell>
        <mxCell id="UV1UsnCk2qy5vx6y43Ti-96" value="&amp;lt;&amp;lt;value&amp;gt;&amp;gt;&lt;div&gt;LocationName&lt;/div&gt;" style="swimlane;html=1;fontStyle=1;align=center;verticalAlign=top;childLayout=stackLayout;horizontal=1;startSize=37;horizontalStack=0;resizeParent=1;resizeLast=0;collapsible=1;marginBottom=0;swimlaneFillColor=#ffffff;rounded=0;shadow=0;comic=0;labelBackgroundColor=none;strokeWidth=1;fontFamily=Verdana;fontSize=12;fillColor=#fff2cc;strokeColor=#d6b656;" vertex="1" parent="1">
          <mxGeometry x="1020" y="60" width="160" height="63" as="geometry" />
        </mxCell>
        <mxCell id="UV1UsnCk2qy5vx6y43Ti-97" value="+ Value: string" style="text;html=1;strokeColor=#d6b656;fillColor=#fff2cc;align=left;verticalAlign=top;spacingLeft=4;spacingRight=4;whiteSpace=wrap;overflow=hidden;rotatable=0;points=[[0,0.5],[1,0.5]];portConstraint=eastwest;" vertex="1" parent="UV1UsnCk2qy5vx6y43Ti-96">
          <mxGeometry y="37" width="160" height="26" as="geometry" />
        </mxCell>
        <mxCell id="UV1UsnCk2qy5vx6y43Ti-104" value="" style="endArrow=classic;html=1;rounded=0;entryX=0;entryY=0.5;entryDx=0;entryDy=0;" edge="1" parent="1" target="UV1UsnCk2qy5vx6y43Ti-97">
          <mxGeometry width="50" height="50" relative="1" as="geometry">
            <mxPoint x="950" y="123" as="sourcePoint" />
            <mxPoint x="1000" y="73" as="targetPoint" />
          </mxGeometry>
        </mxCell>
        <mxCell id="UV1UsnCk2qy5vx6y43Ti-105" value="1" style="text;html=1;align=center;verticalAlign=middle;resizable=0;points=[];autosize=1;strokeColor=none;fillColor=none;" vertex="1" parent="1">
          <mxGeometry x="990" y="76.5" width="30" height="30" as="geometry" />
        </mxCell>
      </root>
    </mxGraphModel>
  </diagram>
</mxfile>
